<?xml version="1.0" encoding="utf-8"?>
<!DOCTYPE svg PUBLIC "-//W3C//DTD SVG 1.0//EN" "http://www.w3.org/TR/2001/REC-SVG-20010904/DTD/svg10.dtd">
<svg version="1.0" xmlns="http://www.w3.org/2000/svg" viewBox="50 120 540 420" preserveAspectRatio="xMidYMid meet">
 <g fill="#ffffff">
  <path d="M99.75 509.50 l0 -3.75 3.15 -0.30 c3.50 -0.35 5.15 -1.30 7 -4 1.10 -1.55 1.15 -2.15 1 -6.80 -0.10 -4.20 -0.35 -5.30 -1.20 -6.50 -1.90 -2.55 -3.85 -3.30 -8.65 -3.35 l-4.30 -0.05 -0.15 14.40 -0.10 14.40 1.60 -0.15 1.65 -0.15 0 -3.75z m43.65 -2.35 l0.15 -6.15 1.75 0 c2.30 0 4.65 1.25 5.20 2.80 0.30 0.70 0.50 2.90 0.50 4.90 0 3.90 0.60 5.05 2.35 4.70 1.40 -0.30 1.20 -7.15 -0.30 -9.55 -1.40 -2.30 -1.35 -4.60 0.20 -6.45 1.70 -2 2 -3.65 1.30 -6.35 -1.15 -4.25 -3.75 -6 -9.55 -6.40 -2.95 -0.20 -3.95 -0.10 -4.30 0.40 -0.50 0.75 -0.85 25.45 -0.45 27.35 0.25 0.90 0.55 1.15 1.65 1 l1.35 -0.15 0.15 -6.10z m51.20 5.45 c0.70 -0.45 1.85 -1.55 2.50 -2.35 1.10 -1.40 1.15 -1.90 1.30 -10.75 0.15 -10.45 -0.15 -11.75 -3.40 -13.90 -3.30 -2.25 -8.40 -0.70 -10.20 3.10 -0.65 1.35 -0.80 3.40 -0.80 10.25 0 7.60 0.10 8.80 1 10.55 1.75 3.50 6.65 5.05 9.60 3.10z m36.90 -3.10 l0.25 -3.75 2.75 -0.30 c3.35 -0.35 4.40 -0.85 6.45 -3.20 1.55 -1.75 1.55 -1.85 1.55 -7.10 0 -4.90 -0.10 -5.45 -1.30 -7 -0.70 -0.90 -1.90 -2 -2.70 -2.40 -2.05 -1.05 -8.75 -1.60 -9.75 -0.75 -0.65 0.55 -0.75 2.65 -0.75 14.25 0 7.45 0.15 13.75 0.35 13.95 0.20 0.20 0.95 0.30 1.65 0.20 1.20 -0.15 1.25 -0.35 1.50 -3.90z m43.50 -10.20 c0 -8.10 -0.20 -14.35 -0.45 -14.50 -0.25 -0.20 -1.05 -0.10 -1.75 0.20 l-1.30 0.50 0 13.20 c0 7.25 0.15 13.55 0.30 14 0.20 0.50 0.90 0.80 1.75 0.80 l1.45 0 0 -14.20z m42.90 12.85 c0.15 -1.05 0 -1.10 -4.25 -1.25 l-4.40 -0.15 -0.15 -5.35 -0.15 -5.40 3.55 0 c3.40 0 3.55 -0.05 3.40 -1.10 -0.15 -1.05 -0.45 -1.15 -3.50 -1.30 l-3.40 -0.15 0 -4.95 0 -5 4.30 0 4.25 0 -0.15 -1.35 -0.15 -1.40 -5.75 0 -5.75 0 -0.25 13.75 c-0.15 7.55 -0.20 14.05 -0.05 14.40 0.10 0.45 1.65 0.60 6.25 0.50 5.80 -0.15 6.05 -0.20 6.20 -1.25z m37.75 0.80 c1.10 -0.30 2.75 -1.30 3.75 -2.20 l1.85 -1.65 0.15 -9.75 0.15 -9.70 -1.35 -1.60 c-0.70 -0.85 -1.95 -1.90 -2.70 -2.30 -1.65 -0.85 -7.40 -1.50 -9.20 -1.05 l-1.30 0.30 0 14.25 0 14.25 3.40 0 c1.85 0 4.20 -0.25 5.25 -0.55z m38.75 -3.30 l0.15 -3.65 3.70 0 3.75 0 0 3.45 c0 3.60 0.30 4.05 2.55 4.05 1.45 0 1.60 -1.55 1.35 -13 -0.20 -10.20 -0.20 -10.45 -1.50 -12.35 -1.40 -2.10 -3.95 -3.65 -6 -3.65 -2.80 0 -6.10 2.65 -6.90 5.55 -0.55 1.95 -0.70 22.60 -0.15 23.15 0.20 0.20 0.95 0.30 1.65 0.20 1.20 -0.15 1.25 -0.30 1.40 -3.75z m49.80 3.30 c1.35 -0.35 2.85 -1.20 3.85 -2.25 l1.70 -1.75 0 -9.95 c0 -9.90 0 -9.90 -1.25 -11.25 -0.70 -0.75 -1.90 -1.70 -2.70 -2.10 -1.95 -1 -8.55 -1.50 -9.55 -0.65 -0.65 0.55 -0.75 2.65 -0.75 14.25 0 7.45 0.15 13.75 0.35 13.90 0.50 0.55 6 0.40 8.35 -0.20z m48.20 -0.80 c0.15 -1.05 0 -1.10 -4.50 -1.25 l-4.65 -0.15 -0.15 -5.35 -0.15 -5.35 3.90 -0.15 c3.50 -0.15 3.90 -0.25 3.90 -1.15 0 -0.90 -0.40 -1 -3.85 -1.15 l-3.90 -0.15 0 -4.95 0 -5 4.50 0 c3.60 0 4.60 -0.15 4.80 -0.75 0.20 -0.40 0.05 -1.10 -0.30 -1.50 -0.55 -0.65 -1.70 -0.75 -6.20 -0.65 l-5.55 0.15 -0.15 14.40 -0.10 14.40 6.10 -0.15 c5.90 -0.15 6.15 -0.20 6.30 -1.25z m38.85 0.35 c2.15 -1.35 3.80 -4.60 3.25 -6.45 -0.75 -2.65 -2 -4.50 -4.35 -6.35 -1.35 -1.05 -3.25 -2.70 -4.25 -3.65 -1.80 -1.65 -1.90 -1.90 -1.90 -4.80 0 -1.70 0.25 -3.30 0.60 -3.65 0.80 -0.80 5.50 -0.80 6.30 0 0.35 0.35 0.60 1.35 0.60 2.25 0 1.50 0.15 1.65 1.55 1.65 1.35 0 1.50 -0.15 1.15 -1.10 -1.05 -3.50 -3.70 -5.90 -6.40 -5.90 -3.15 0 -6.80 3.35 -6.80 6.25 0 2.80 1.40 4.80 5.85 8.50 4.60 3.80 5.15 4.70 5.15 8.05 0 3.20 -1.30 4.40 -4.60 4.10 -2.70 -0.30 -3.40 -0.90 -3.40 -2.95 0 -1.55 -1.15 -2.70 -2.25 -2.25 -1.85 0.70 -0.20 4.55 2.70 6.25 2.30 1.30 4.75 1.35 6.80 0.05z m-53.65 -51.50 c7.20 -2.15 14.10 -6.75 18.10 -12.05 3.20 -4.20 4.65 -7.20 5.80 -11.85 0.90 -3.55 1 -5.75 0.95 -30.10 0 -29.40 0 -29.45 -3.45 -36.35 -3.65 -7.20 -8.85 -11.85 -17.40 -15.60 -5.05 -2.25 -7.80 -2.70 -15.35 -2.70 -8.45 0 -10.85 0.50 -17.60 3.90 -8.50 4.30 -13.35 9.50 -17.10 18.35 l-1.30 3.15 -0.15 28.45 c-0.15 27.90 -0.10 28.55 0.95 32 2.60 8.70 8.80 15.85 17.50 20.25 6.50 3.25 10.70 4.10 19.30 3.80 4.25 -0.15 7.15 -0.50 9.75 -1.25z m40.90 -113.50 c0.15 -63.10 0.30 -114.80 0.40 -114.85 0.65 -0.75 4.60 0.30 9.70 2.55 3.40 1.45 8.90 3.85 12.25 5.30 3.35 1.45 6.20 2.90 6.35 3.30 0.15 0.35 0.25 49.50 0.30 109.25 0 59.70 0.15 108.80 0.30 109 0.15 0.25 3.50 0.45 7.50 0.45 l7.20 0 0.05 -84.85 c0.05 -46.70 0.05 -94.20 0 -105.55 l-0.10 -20.70 2.65 0.20 c1.65 0.15 4.40 1 7.30 2.30 l4.60 2.05 0.75 -1.80 c0.45 -1 0.70 -1.85 0.65 -1.90 -0.25 -0.20 -8.85 -3.95 -12.40 -5.45 l-3.25 -1.35 0 -26.35 c0 -14.50 -0.05 -43.05 -0.15 -63.45 l-0.10 -37.15 -75 0 -75 0 0 30.50 0 30.50 -1.60 0 c-1.50 0 -7.55 -2.30 -15.15 -5.75 -1.65 -0.75 -5.80 -2.55 -9.25 -4 -7.80 -3.25 -15.60 -6.60 -22.75 -9.75 -3 -1.35 -6.75 -2.90 -8.25 -3.50 -1.50 -0.60 -5.45 -2.25 -8.75 -3.75 -6.05 -2.70 -10.80 -4.75 -24.50 -10.55 -4.10 -1.75 -7.60 -3 -7.75 -2.80 -0.20 0.20 -0.60 1 -0.90 1.75 -0.60 1.40 -0.60 1.40 3 3.10 2 0.90 6.15 2.70 9.15 3.90 3.05 1.25 7.30 3.10 9.50 4.10 2.20 1.05 5.15 2.25 6.50 2.75 1.40 0.50 4.55 1.85 7 3 2.50 1.20 7.30 3.30 10.75 4.75 9 3.75 15.40 6.50 22.30 9.55 3.35 1.50 7.30 3.15 8.75 3.65 1.50 0.55 4.70 1.90 7.15 3.05 2.50 1.15 5.85 2.60 7.55 3.25 1.70 0.60 4 1.60 5.15 2.20 l2.10 1.05 0 6.75 0 6.75 -1.45 0 c-1.40 0 -3 -0.55 -8.30 -3 -1.35 -0.65 -2.70 -1.15 -3 -1.15 -0.25 0 -2.05 0.70 -4 1.60 -1.90 0.90 -4.30 1.95 -5.25 2.30 -0.95 0.35 -3.90 1.60 -6.50 2.75 -2.60 1.20 -7.55 3.30 -11 4.75 -3.45 1.45 -10.95 4.70 -16.75 7.25 -17.40 7.65 -22.30 9.55 -23.95 9.40 l-1.55 -0.15 -0.15 -8.85 -0.10 -8.90 -7.75 0 -7.75 0 0 13.20 0 13.20 -5.10 2.05 c-5.15 2.10 -6.10 2.50 -10.50 4.50 l-2.40 1.05 0 34.50 0 34.50 8 0 8 0 0 -29.25 0 -29.20 1.65 -0.85 c0.85 -0.50 4.20 -1.95 7.35 -3.25 7 -2.85 19.75 -8.35 23.50 -10.05 4.75 -2.20 7.60 -3.40 8.05 -3.40 0.25 0 3.75 -1.55 7.85 -3.45 4.05 -1.85 7.95 -3.60 8.65 -3.75 1.30 -0.40 1.50 -0.50 9.85 -4.25 3.15 -1.40 5.90 -2.55 6.10 -2.55 0.25 0 3.15 -1.25 6.45 -2.75 3.30 -1.50 6.65 -2.75 7.45 -2.75 0.80 0 3.45 0.95 5.90 2.05 2.45 1.15 7.05 3.15 10.20 4.45 3.15 1.30 9.35 3.95 13.75 5.90 4.40 1.90 10.25 4.40 13 5.60 2.75 1.15 7.95 3.40 11.50 5 3.60 1.60 7.05 3.10 7.75 3.30 0.65 0.20 2.80 1.05 4.75 1.95 4.05 1.85 7.70 3.45 14 6.05 2.50 1 4.90 2.20 5.40 2.60 0.80 0.70 0.85 3.60 0.85 47.65 l0 46.85 1.65 0.55 c2.15 0.75 8.50 4.65 11.50 7.15 l2.35 2 0 -57.25 0 -57.30 -2.85 -1.30 c-1.60 -0.75 -6.05 -2.65 -9.90 -4.25 -3.85 -1.60 -8.45 -3.55 -10.25 -4.40 -1.80 -0.85 -9.65 -4.30 -17.50 -7.65 -18 -7.70 -28 -12 -31.35 -13.50 l-2.65 -1.15 0 -6.65 0 -6.65 1.65 0 c1.60 0 3.90 0.90 16.85 6.55 3.70 1.65 6.95 2.95 7.15 2.95 0.20 0 1.45 0.50 2.75 1.05 1.30 0.60 3.80 1.75 5.60 2.60 1.80 0.80 5.85 2.55 9 3.85 5.80 2.40 13.25 5.60 23.25 10 3.05 1.35 7.20 3.10 9.25 3.90 2.05 0.85 5.25 2.20 7.15 3.05 l3.35 1.50 0 116.45 c0 64.05 0.15 116.60 0.35 116.80 0.20 0.20 1.15 0.30 2.15 0.20 l1.75 -0.15 0.25 -114.75z m-388.35 111.90 c0.75 -0.90 0.85 -2.20 0.85 -10.30 0 -7.90 -0.10 -9.40 -0.85 -10.20 -0.75 -0.85 -2.10 -0.90 -21.45 -0.90 -14.30 0 -20.75 -0.15 -21 -0.55 -0.20 -0.40 -0.45 -34.60 -0.25 -38.45 0.05 -0.30 5.90 -0.50 16.55 -0.50 15.85 0 16.55 -0.05 17.50 -1 0.95 -0.95 1 -1.65 1 -10.35 -0.05 -7.60 -0.20 -9.60 -0.80 -10.40 -0.70 -0.95 -1.50 -1 -17.60 -1.25 l-16.85 -0.25 0 -18.25 0 -18.25 20.65 -0.25 20.70 -0.25 0.95 -1.20 c0.95 -1.15 1 -1.90 0.85 -10.55 -0.10 -7 -0.30 -9.55 -0.85 -10.15 -0.60 -0.80 -3.60 -0.85 -33.80 -0.85 l-33.20 0 -1 1.30 -1.05 1.35 0 69.65 c0 52 0.15 70 0.60 70.95 0.30 0.70 1.15 1.40 2 1.65 0.80 0.20 16 0.30 33.80 0.20 31.85 -0.15 32.35 -0.20 33.25 -1.20z m89.05 0.55 l1.30 -1 0 -38.40 c0 -41.65 0 -41.70 2.75 -44.95 4.05 -4.85 14.65 -3.70 17.60 1.85 l1.15 2.20 0 38.95 c0 39.10 0.05 40.40 1.70 41.50 0.30 0.20 5.40 0.40 11.35 0.40 l10.80 0 0.85 -1.60 c0.80 -1.55 0.85 -4.25 0.70 -39.40 -0.20 -36.45 -0.25 -37.90 -1.30 -42.40 -2.95 -12.80 -12.05 -21.95 -24.10 -24.25 -4.70 -0.85 -15.30 -0.70 -18.75 0.30 -4.10 1.20 -7.90 3.60 -10.75 6.75 -3.35 3.60 -4.55 3.55 -8.40 -0.30 -3.25 -3.35 -7.40 -5.85 -10.90 -6.70 -3.30 -0.75 -14.05 -1.10 -16.20 -0.50 -0.95 0.30 -3.25 0.85 -5.05 1.30 -3.60 0.85 -8.45 3.35 -11.80 6.10 -2.65 2.20 -7.40 9.25 -8.75 13.05 -1.95 5.60 -2.05 7.50 -2.25 47.10 -0.15 35.70 -0.10 38.75 0.65 39.60 0.80 0.85 1.75 0.95 11.60 0.95 9.30 0 10.90 -0.10 11.70 -0.85 0.85 -0.75 0.90 -2.65 0.90 -38.85 0 -41.60 0.05 -42.50 2.85 -45.40 2.60 -2.75 7.95 -3.60 12.15 -2 2.55 1 5.15 4.05 6 7 0.30 1.20 0.50 15.20 0.50 39.75 0 25.85 0.15 38.25 0.55 38.90 0.30 0.55 1 1.20 1.60 1.45 0.60 0.25 5.40 0.45 10.65 0.45 8.95 0.05 9.65 0 10.90 -1z m94.90 -0.30 c0.85 -0.75 0.90 -3.05 0.90 -52.25 0 -50.75 0 -51.40 -1 -52.40 -0.95 -0.95 -1.65 -1 -11.60 -1 -9.15 0 -10.70 0.10 -11.50 0.85 -0.85 0.75 -0.90 3.05 -0.90 52.45 0 46.25 0.10 51.70 0.80 52.40 0.65 0.70 2.40 0.80 11.55 0.80 9.35 0 10.95 -0.10 11.75 -0.85z m58.90 -0.15 c0.90 -0.90 1 -1.65 1 -9.45 0 -10.40 0.10 -10.20 -6 -10.95 -5.65 -0.70 -6.70 -1.15 -8.35 -3.65 l-1.40 -2.15 -0.15 -58.25 c-0.10 -41.25 -0.30 -58.40 -0.70 -58.90 -0.40 -0.50 -3 -0.65 -11.45 -0.65 -9.20 0 -11 0.10 -11.65 0.80 -0.70 0.70 -0.80 5.75 -0.90 46.85 -0.20 63.80 -0.05 72.15 1.15 76.85 1.40 5.50 3.75 9.85 6.95 13 5.60 5.60 11 7.35 22.65 7.45 7.20 0.05 7.95 -0.05 8.85 -0.95z m39.85 -0.10 l1.15 -1.05 0 -50.85 c0 -50.70 0 -50.85 -1.05 -52.20 l-1 -1.30 -10.70 0 c-10.40 0 -10.75 0.05 -11.75 1.10 -1 1.10 -1 1.25 -0.90 52.55 0.15 50.25 0.15 51.45 1.10 52.15 0.80 0.55 3.20 0.70 11.50 0.70 10.10 0 10.55 -0.05 11.65 -1.10z m-249.40 -116.90 c1 -0.25 2.35 -0.55 3.05 -0.70 0.70 -0.15 2.75 -1.25 4.50 -2.40 4.10 -2.75 7.15 -6.90 8.60 -11.55 0.95 -3.25 1 -3.90 0.45 -7.05 -0.30 -1.95 -1.40 -5.20 -2.40 -7.30 -2.25 -4.65 -7.70 -10.25 -16.30 -16.70 -8.20 -6.15 -9.85 -8.60 -9.85 -14.40 0 -3.55 1.30 -7 2.90 -7.85 0.60 -0.30 2.80 -0.55 4.95 -0.55 6 0 7.10 1.15 7.60 7.75 l0.30 4 3.65 0.45 c2.10 0.25 4.50 0.25 5.75 0 1.95 -0.40 2.10 -0.55 2.25 -2.30 0.25 -2.70 -0.70 -7.05 -2.20 -10.45 -1.65 -3.60 -4.95 -6.80 -9.35 -8.95 -3.80 -1.85 -6.70 -2.25 -10.60 -1.55 -11.20 2.05 -18.70 12.30 -16.80 22.90 1.30 7.25 4.15 11 14.80 19.55 8.55 6.90 10.75 9 12.05 11.85 1.50 3.20 1.65 8.20 0.25 10.75 -1.85 3.55 -6.70 4.95 -11.05 3.20 -2.90 -1.15 -4.10 -3.45 -4.40 -8.25 l-0.25 -3.95 -5.35 0 c-6.55 0 -6.75 0.15 -6.35 4.65 0.60 6.60 3.05 11.40 7.75 15.10 1.45 1.15 3.50 2.35 4.50 2.65 4.55 1.30 5.50 1.50 7.55 1.55 1.20 0.05 3 -0.15 4 -0.45z m48.45 -0.50 c5.35 -0.95 11.05 -5.20 13.25 -9.90 1.05 -2.25 1.10 -2.90 1.10 -18.60 0 -16 0 -16.30 -1.20 -18.85 -1.45 -3.30 -5.65 -7.30 -9.40 -9.05 -3.80 -1.75 -10.25 -2.10 -14.85 -0.85 -3.55 1 -8.25 3.35 -9.75 4.95 l-1 1.05 2 3.05 1.95 3.05 2.65 -1.30 c2.20 -1.10 3.40 -1.35 8 -1.45 8.70 -0.30 9.50 0.45 9.25 8.70 l-0.15 4.95 -6 0.30 c-7.90 0.40 -12.30 2.05 -15.45 5.80 -1.90 2.25 -3.80 7.55 -3.80 10.60 0 3.25 1.65 8.35 3.45 10.70 2 2.65 6.10 5.60 8.70 6.30 4.35 1.15 6.15 1.50 7.35 1.25 0.70 -0.10 2.45 -0.40 3.90 -0.70z m100.80 0.50 c0.70 -0.25 1.75 -1.20 2.30 -2.10 0.85 -1.45 1 -2.55 1 -8.70 0 -11.80 -0.45 -12.20 -13.55 -12.20 -13.35 0 -13.45 0.05 -13.45 12 0 9.20 0.15 9.75 3.05 10.80 2.10 0.75 18.80 0.90 20.65 0.20z m99.30 -0.40 c1 -0.50 1.85 -1.35 2.05 -2.10 0.20 -0.70 0.35 -4.30 0.40 -8 0.10 -12.25 -0.15 -12.50 -13.10 -12.50 -13.60 0 -14 0.30 -14.25 11.25 -0.15 6.05 -0.05 7.35 0.75 9.05 1.30 2.80 2.75 3.15 13.40 3.15 7.60 0.05 9.25 -0.10 10.75 -0.85z m-163.30 -1.40 c0.15 -0.45 0.30 -9.95 0.30 -21.10 0 -12.45 0.20 -21.05 0.50 -22.20 0.75 -2.70 2.05 -3.40 6.30 -3.40 4.25 0 5.70 0.85 6.60 3.90 0.40 1.35 0.60 8.25 0.60 22.80 l0 20.85 5.65 -0.15 5.60 -0.15 0.15 -21.50 c0.15 -25.55 0.20 -25.25 -4.40 -29.85 -4.20 -4.15 -7.45 -5.60 -13.40 -5.80 -3.85 -0.15 -5.15 0 -7.50 0.85 -4 1.50 -7.35 4.10 -9.35 7.30 -3.10 4.80 -3.25 6.20 -3.25 28.05 0 10.80 0.15 19.95 0.30 20.40 0.25 0.65 1.25 0.80 5.95 0.80 4.70 0 5.70 -0.15 5.95 -0.80z m-118.95 -40.95 l0 -2 -34.50 0 c-33 0 -34.50 0.05 -34.65 0.90 -0.10 0.50 -0.05 1.50 0.10 2.15 l0.30 1.20 34.40 -0.10 34.35 -0.15 0 -2z"/>
  <path d="M100.50 502.55 c-0.65 -0.40 -0.75 -1.75 -0.75 -7.65 l0 -7.15 3.30 -0.15 c4.80 -0.20 4.95 0.05 4.95 7.35 0 3.90 -0.20 6.15 -0.60 6.70 -0.75 0.95 -5.75 1.65 -6.90 0.90z"/>
  <path d="M143.50 493.25 l0 -5.75 3.20 0 c2.80 0 3.35 0.15 4 1.10 0.90 1.30 1.10 7.05 0.30 9.10 -0.45 1.25 -0.70 1.30 -4 1.30 l-3.50 0 0 -5.75z"/>
  <path d="M188.35 510.60 c-0.75 -0.80 -0.85 -2.40 -0.85 -11.75 0 -10.60 0 -10.80 1.10 -11.55 0.60 -0.45 1.80 -0.80 2.65 -0.80 0.85 0 2.05 0.35 2.65 0.80 1.10 0.75 1.10 0.95 1.10 11.70 0 12.40 -0.05 12.50 -3.70 12.50 -1.45 0 -2.40 -0.30 -2.95 -0.90z"/>
  <path d="M232.10 502.60 c-0.45 -0.30 -0.60 -2.20 -0.50 -7.65 l0.15 -7.20 3.25 -0.15 c4.35 -0.20 4.50 0 4.50 7.70 0 4.90 -0.15 6.20 -0.80 6.75 -0.90 0.75 -5.70 1.15 -6.60 0.55z"/>
  <path d="M350.60 510.60 c-0.45 -0.35 -0.60 -3 -0.50 -11.65 l0.15 -11.20 3.65 -0.15 c3.50 -0.15 3.60 -0.10 4.10 1.15 0.70 1.85 0.65 18.90 -0.05 20.45 -0.30 0.65 -1.05 1.35 -1.65 1.50 -1.55 0.40 -4.95 0.35 -5.70 -0.10z"/>
  <path d="M394.85 503.65 c-0.65 -0.60 -0.40 -15.40 0.25 -16.05 0.35 -0.35 1.75 -0.60 3.15 -0.60 1.40 0 2.80 0.25 3.15 0.60 0.40 0.40 0.60 3 0.60 8.50 l0 7.90 -3.40 0 c-1.90 0 -3.60 -0.15 -3.75 -0.35z"/>
  <path d="M439.65 510.70 c-0.50 -0.20 -0.65 -3.05 -0.65 -11.75 l0 -11.45 2.95 0 c4.90 0 4.55 -0.85 4.55 11.25 0 8.95 -0.10 10.75 -0.75 11.25 -0.85 0.70 -5.10 1.15 -6.10 0.70z"/>
  <path d="M462.45 441.55 c-2.50 -0.50 -4.70 -2.25 -6.20 -4.75 l-1.25 -2.15 0 -27.35 c0 -26.30 0.05 -27.40 1 -29.30 1.10 -2.20 3.40 -4.10 5.95 -4.95 2.70 -0.90 7.30 -0.70 9.50 0.40 2.25 1.20 4.90 4.05 5.40 5.95 0.25 0.75 0.40 13.50 0.40 28.35 l0 27 -1.35 2.35 c-1.90 3.15 -3.95 4.30 -8.20 4.60 -1.90 0.15 -4.25 0.05 -5.25 -0.15z"/>
  <path d="M537 234.45 c-3.15 -1.40 -8.20 -3.60 -11.25 -4.90 -3 -1.35 -5.90 -2.55 -6.35 -2.70 -0.85 -0.30 -0.90 -1.80 -0.90 -21.85 l0 -21.50 -2.25 0 -2.25 0 0 19.50 0 19.50 -2.15 0 c-2.05 0 -8.35 -2.30 -17.10 -6.25 -1.65 -0.75 -5.80 -2.55 -9.25 -4 -3.45 -1.45 -10.50 -4.50 -15.75 -6.75 -19.30 -8.30 -23.65 -10.15 -29.75 -12.75 -3.45 -1.45 -7.55 -3.20 -9.15 -3.90 l-2.85 -1.30 0.10 -26.55 0.15 -26.55 59.20 0.05 c32.55 0 59.40 0.15 59.65 0.30 0.25 0.15 0.40 22.15 0.40 51.25 l-0.10 50.95 -2.30 -0.05 c-1.60 -0.05 -4.15 -0.85 -8.10 -2.50z"/>
  <path d="M204.05 332.15 c-2.45 -1.25 -3.20 -3.40 -2.95 -8.80 0.20 -4.05 0.30 -4.50 1.70 -5.85 1.20 -1.20 2.15 -1.60 5.20 -2.05 2.80 -0.40 4.10 -0.40 5.20 0 l1.40 0.55 -0.20 6.65 c-0.20 7.15 -0.70 8.65 -3.20 9.75 -1.80 0.85 -5.15 0.70 -7.15 -0.25z"/>
 </g>
 <g fill="#ffffff">
  <path d="M456.25 463.25 c-2.90 -0.50 -5.45 -1.40 -9.20 -3.30 -8.70 -4.40 -14.90 -11.55 -17.50 -20.25 -1.05 -3.45 -1.10 -4.05 -0.95 -33.50 l0.15 -29.95 1.30 -3.15 c3.75 -8.85 8.60 -14.05 17.10 -18.35 3.10 -1.55 6.85 -3.05 8.35 -3.35 3.55 -0.75 17.95 -0.75 21.35 0 1.40 0.30 4.20 1.25 6.25 2.15 8.55 3.75 13.75 8.40 17.40 15.60 3.50 6.95 3.45 6.80 3.45 37.85 0.05 25.80 -0.05 28 -0.95 31.60 -1.15 4.65 -2.60 7.65 -5.80 11.85 -3.95 5.25 -10.45 9.65 -17.70 11.90 -4.85 1.55 -17 2 -23.25 0.90z m15.15 -24.35 c0.90 -0.55 2.25 -2.05 3 -3.30 l1.35 -2.35 -0.05 -25.50 c0 -14 -0.20 -26.10 -0.35 -26.85 -0.80 -3.10 -5.60 -6.90 -8.75 -6.90 -3.55 0 -7.50 2.40 -9.10 5.50 -0.95 1.90 -1 3 -1 27.80 l0 25.85 1.25 2.15 c2.20 3.75 5.60 5.35 10 4.80 1.10 -0.10 2.75 -0.65 3.65 -1.20z"/>
  <path d="M512.85 463.70 c-0.20 -0.20 -0.35 -52.75 -0.35 -116.80 l0 -116.45 -3.35 -1.50 c-1.90 -0.85 -5.10 -2.20 -7.15 -3.05 -2.05 -0.80 -6.20 -2.55 -9.25 -3.90 -10 -4.40 -17.45 -7.60 -23.25 -10 -3.15 -1.30 -7.20 -3.05 -9 -3.85 -1.80 -0.85 -4.30 -2 -5.60 -2.60 -1.30 -0.55 -2.55 -1.05 -2.75 -1.05 -0.20 0 -3.45 -1.30 -7.15 -2.95 -5.65 -2.45 -12.30 -5.35 -14.85 -6.40 -0.30 -0.10 -0.65 0.25 -0.75 0.80 -0.15 0.90 -0.55 0.80 -5.90 -1.50 -3.15 -1.40 -7.20 -3.15 -9 -3.95 -2.35 -1 -3.30 -1.65 -3.40 -2.45 -0.20 -1.15 -2.35 -2.45 -7.35 -4.30 -1.70 -0.65 -5.05 -2.10 -7.55 -3.25 -2.45 -1.15 -5.65 -2.50 -7.15 -3.05 -1.45 -0.50 -5.40 -2.15 -8.75 -3.65 -6.90 -3.05 -13.30 -5.80 -22.30 -9.55 -3.45 -1.45 -8.25 -3.55 -10.75 -4.75 -2.45 -1.15 -5.60 -2.50 -7 -3 -1.35 -0.50 -4.95 -2 -8 -3.40 -3 -1.35 -7.05 -3.10 -9 -3.85 -1.90 -0.75 -5.55 -2.35 -8.10 -3.50 l-4.60 -2.15 1.35 -3.45 c0.70 -1.85 1.35 -3.50 1.45 -3.60 0.15 -0.25 21.30 8.65 34.90 14.70 3.30 1.50 7.25 3.15 8.75 3.75 1.50 0.60 5.25 2.15 8.25 3.50 7.15 3.15 14.95 6.50 22.75 9.75 3.45 1.45 7.60 3.25 9.25 4 1.65 0.75 5.15 2.25 7.75 3.35 2.60 1.10 5 2.10 5.35 2.25 0.30 0.10 0.65 -0.25 0.75 -0.80 0.15 -0.90 0.70 -0.75 7.65 2.30 4.15 1.80 8.25 3.55 9.15 3.95 1.05 0.45 1.60 1.05 1.60 1.70 0 1.15 0.50 1.40 12 6.25 6.10 2.60 10.45 4.45 29.75 12.75 5.25 2.25 12.30 5.30 15.75 6.75 3.45 1.45 7.60 3.25 9.25 4 5.40 2.40 14.95 6.25 15.60 6.25 0.50 0 0.65 -3.80 0.65 -19.50 l0 -19.55 3.80 0.15 3.75 0.15 -0.05 21.40 c-0.05 20.05 0 21.40 0.85 21.65 0.50 0.20 3.60 1.50 6.90 2.95 9.65 4.25 17 7.25 17.65 7.25 0.35 0 0.60 -0.35 0.60 -0.75 0 -0.95 -0.15 -1 2.95 0.50 1.45 0.70 4.90 2.20 7.70 3.35 7.20 2.85 7.80 3.20 7.50 4.30 -0.15 0.75 0.45 1.20 3.20 2.35 3.90 1.65 13.35 5.80 13.55 5.95 0.05 0.10 -0.55 1.70 -1.35 3.60 -0.85 2.10 -1.70 3.40 -2.10 3.35 -0.40 0 -3.30 -1.20 -6.45 -2.60 -6.15 -2.75 -7 -2.95 -7 -1.80 0 0.40 -0.15 0.75 -0.40 0.75 -0.20 0 -3.75 -1.50 -7.85 -3.30 -4.15 -1.80 -8.10 -3.55 -8.85 -3.85 -0.75 -0.30 -1.25 -0.70 -1.10 -0.90 0.60 -1 -0.95 -2.10 -6.45 -4.45 -3.35 -1.45 -8.90 -3.85 -12.30 -5.35 -3.40 -1.45 -6.30 -2.55 -6.50 -2.40 -0.15 0.20 -0.40 51.90 -0.55 114.90 l-0.25 114.60 -3.25 0.15 c-1.80 0.10 -3.45 0 -3.65 -0.20z"/>
  <path d="M61.70 461.95 c-0.90 -0.25 -1.75 -0.95 -2.10 -1.70 -0.45 -0.95 -0.60 -19.30 -0.60 -72.45 l0 -71.15 1.05 -1.35 1 -1.30 34.70 0 c31.60 0 34.70 0.05 35.30 0.85 0.55 0.60 0.75 3.35 0.85 11.65 0.15 10.15 0.10 10.90 -0.85 12.05 l-0.95 1.20 -20.65 0.25 -20.65 0.25 0 16.75 -0.05 16.75 16.85 0.25 c16.10 0.25 16.90 0.30 17.60 1.25 0.65 0.80 0.75 2.95 0.80 11.90 0 10.20 -0.05 10.90 -1 11.85 -0.95 0.95 -1.65 1 -17.50 1 -10.65 0 -16.50 0.20 -16.50 0.50 -0.15 7.65 0.05 35.15 0.25 35.50 0.20 0.30 8.15 0.50 20.95 0.50 19.35 0 20.70 0.05 21.45 0.90 0.75 0.80 0.85 2.40 0.85 11.70 0 9.55 -0.10 10.90 -0.85 11.80 -0.90 1 -1.55 1 -34.65 1.25 -18.55 0.10 -34.45 0.05 -35.30 -0.20z"/>
  <path d="M149.60 461.95 c-2.15 -0.80 -2.15 0.05 -1.95 -42 0.10 -25.30 0.40 -41.20 0.70 -42.95 0.90 -4.65 2.45 -8.35 5.40 -12.75 1.55 -2.30 3.75 -5 4.90 -5.95 3.35 -2.75 8.20 -5.25 11.80 -6.10 1.80 -0.45 4.10 -1 5.05 -1.30 2.25 -0.60 16 -0.25 19.20 0.50 3.50 0.85 7.65 3.40 10.95 6.70 l2.90 2.95 2.40 -2.65 c2.90 -3.15 6.70 -5.55 10.80 -6.75 2.35 -0.70 4.70 -0.90 11 -0.85 11.65 0.05 15.60 1.05 22.25 5.45 6.15 4.10 10.70 11.10 12.60 19.35 1.05 4.50 1.10 5.85 1.30 43.90 0.15 36.40 0.10 39.35 -0.70 40.85 l-0.85 1.60 -11.55 0.15 c-6.35 0.10 -12.15 -0.05 -12.85 -0.25 -0.70 -0.20 -1.55 -0.95 -1.90 -1.65 -0.40 -0.90 -0.55 -12.10 -0.55 -40.05 0 -38.25 0 -38.85 -1.05 -40.95 -1.15 -2.40 -3.10 -3.85 -6.50 -4.75 -1.95 -0.50 -2.60 -0.50 -4.60 0.30 -1.30 0.50 -2.95 1.55 -3.60 2.35 -2.75 3.25 -2.75 3.30 -2.75 44.95 l0 38.40 -1.35 1.05 c-1.30 1 -1.75 1.05 -13.05 0.90 -11.60 -0.15 -11.70 -0.15 -12.65 -1.35 -0.90 -1.10 -0.95 -2.50 -0.95 -39.25 0 -24.65 -0.20 -38.70 -0.50 -39.90 -0.90 -3.10 -3.45 -6 -6.25 -7.05 -2.35 -0.90 -2.65 -0.90 -5.05 -0.15 -3.30 1.05 -4.95 2.85 -5.90 6.55 -0.70 2.55 -0.80 8.25 -0.80 41.05 0 37.10 0 38.05 -1 38.95 -0.85 0.75 -2.20 0.85 -12.50 0.95 -6.35 0 -11.95 -0.10 -12.40 -0.25z"/>
  <path d="M290.65 461.90 c-0.70 -0.20 -1.50 -0.65 -1.70 -1 -0.25 -0.35 -0.45 -24.50 -0.45 -53.70 0 -50.75 0.05 -53.10 0.90 -53.85 0.80 -0.75 2.45 -0.85 13 -0.85 11.45 0 12.15 0.05 13.10 1 1 1 1 1.65 1 53.90 0 50 -0.05 53 -0.90 53.75 -0.75 0.65 -2.65 0.80 -12.25 0.95 -6.25 0.10 -12 0 -12.70 -0.20z"/>
  <path d="M357 461.95 c-12.85 -1.35 -20.75 -8.05 -23.95 -20.45 -1.20 -4.65 -1.35 -14 -1.15 -79.85 0.10 -41.10 0.20 -46.15 0.90 -46.85 0.65 -0.70 2.55 -0.80 13.15 -0.80 9.70 0 12.55 0.15 12.95 0.65 0.40 0.50 0.60 17.65 0.70 58.95 l0.15 58.30 1.50 2.15 c1.75 2.45 3.55 3.20 9.05 3.60 5.25 0.45 5.20 0.35 5.20 12.40 0 9.30 -0.05 10 -1 10.95 -0.55 0.55 -1.50 1 -2.10 1.05 -9.15 0.20 -12.70 0.15 -15.40 -0.10z"/>
  <path d="M399.90 462 c-8.35 -0.20 -11.50 -0.40 -12 -0.90 -0.50 -0.50 -0.70 -11 -0.80 -53.50 -0.10 -52.75 -0.10 -52.90 0.90 -54 1 -1.10 1.30 -1.10 13.25 -1.10 l12.20 0 1 1.30 c1.05 1.35 1.05 1.50 1.05 53.70 l0 52.35 -1.10 1 c-0.65 0.55 -1.60 1.10 -2.15 1.20 -0.55 0.10 -6.10 0.10 -12.35 -0.05z"/>
  <path d="M290.55 343.80 c-2.95 -1.05 -3.05 -1.50 -3.05 -12.30 0 -13.85 -0.40 -13.50 14.95 -13.50 15.10 0 15.05 -0.05 15.05 13.70 0 7.65 -0.10 8.70 -1 10.20 -0.55 0.90 -1.60 1.85 -2.30 2.10 -1.85 0.75 -21.55 0.55 -23.65 -0.20z"/>
  <path d="M389 343.85 c-1.25 -0.45 -2 -1.15 -2.65 -2.55 -0.80 -1.70 -0.90 -3.05 -0.75 -10.55 0.25 -12.85 0.10 -12.75 15.75 -12.75 14.90 0 14.70 -0.20 14.60 14 -0.05 4.55 -0.20 8.80 -0.40 9.50 -0.20 0.75 -1.05 1.60 -2.05 2.10 -1.50 0.80 -3.20 0.90 -12.25 0.85 -6.75 0 -11.10 -0.20 -12.25 -0.60z"/>
 </g>
 <g fill="#e65609">
  <path d="M546.25 463.40 c-0.40 -1.20 -0.50 -218.40 -0.10 -218.40 0.20 0 1.35 0.40 2.50 0.95 1.15 0.50 5.10 2.20 8.75 3.80 6 2.60 6.60 3 6.65 4.20 0.05 1 0 191.10 -0.05 206.70 l0 3.35 -8.75 0 c-6.60 0 -8.85 -0.15 -9 -0.60z"/>
  <path d="M154 343.90 c-0.95 -0.25 -2.60 -0.70 -3.60 -1 -4.30 -1.25 -9.60 -6.95 -11.20 -12.15 -1.10 -3.35 -1.55 -11.50 -0.70 -12.50 0.50 -0.60 2 -0.75 7.50 -0.75 l6.85 0 0.25 3.95 c0.30 5 1.50 7.10 4.70 8.35 2.10 0.80 2.30 0.80 4.25 -0.05 5.35 -2.45 5.85 -9.05 1.05 -14.35 -0.95 -1.05 -4.90 -4.50 -8.80 -7.60 -8 -6.45 -12.20 -10.65 -13.75 -13.70 -2.40 -4.65 -3.20 -12.35 -1.85 -17.35 1 -3.85 2.20 -6.10 4.90 -9.05 6 -6.50 17.20 -8.65 25.10 -4.75 8.10 4 11.80 10.40 11.80 20.55 0 2.20 -0.25 3.55 -0.65 3.90 -0.80 0.70 -12.85 0.65 -13.70 -0.05 -0.40 -0.30 -0.65 -1.65 -0.65 -3.30 0 -6.10 -1.75 -8.55 -6.10 -8.55 -3.20 0 -4.30 0.65 -5.45 3.15 -1.15 2.55 -1.20 4.80 -0.20 7.20 1.30 3.10 2.95 4.85 9.10 9.45 8.65 6.45 14.10 12.05 16.30 16.70 4.15 8.85 3.70 17 -1.30 23.85 -2.25 3 -7.45 6.95 -9.85 7.45 -0.70 0.15 -2.05 0.45 -3.05 0.70 -2.25 0.60 -8.65 0.55 -10.95 -0.10z"/>
  <path d="M203.25 344 c-5.05 -1.20 -6.40 -1.75 -8.80 -3.50 -1.40 -1.05 -3.20 -2.80 -4 -3.85 -3.45 -4.55 -4.50 -13.20 -2.25 -19.35 2.65 -7.35 7.50 -10.20 18.05 -10.75 l6 -0.30 0.15 -3.45 c0.25 -6.25 -1.15 -7.55 -7.80 -7.25 -3.25 0.15 -4.50 0.50 -7.10 1.85 -1.70 0.85 -3.45 1.60 -3.80 1.60 -0.85 0 -5.70 -7.15 -5.70 -8.45 0 -2.05 5.50 -5.65 11.15 -7.25 3.85 -1.10 12.75 -1.15 15.85 -0.05 5.35 1.90 10.10 6.15 11.80 10.50 0.85 2.30 0.95 3.95 0.95 20 0 17 -0.05 17.55 -1.10 19.85 -2.15 4.65 -7.90 8.95 -13.25 9.95 -4.15 0.80 -7.95 0.95 -10.15 0.45z m6.45 -13.10 c2.30 -1 2.90 -2.65 3.15 -8.25 0.20 -4.95 0.15 -5.20 -0.90 -5.55 -1.90 -0.70 -6.05 0.30 -7.60 1.85 -1.15 1.15 -1.50 1.95 -1.70 4.35 -0.35 3.80 0.60 6.20 2.90 7.35 2.05 1 2.50 1 4.15 0.25z"/>
  <path d="M242.50 343.10 c-4.60 -0.10 -6.85 -0.30 -7.10 -0.75 -0.20 -0.35 -0.40 -10.15 -0.40 -21.85 0 -23.70 0.15 -24.90 3.25 -29.75 2 -3.15 5.35 -5.80 9.35 -7.25 3.95 -1.50 12.50 -1.50 16.60 0 3.15 1.20 7.05 4.10 9.10 6.75 2.85 3.75 3 5.35 2.70 30.05 l-0.25 22.45 -7.10 0.15 c-5.55 0.10 -7.15 0 -7.15 -0.50 0 -0.35 0 -9.70 0 -20.80 0.05 -21.55 -0.15 -23.35 -2.40 -25.15 -1.50 -1.15 -4.90 -1.25 -6.45 -0.20 -0.60 0.45 -1.35 1.60 -1.65 2.65 -0.30 1.15 -0.50 9.80 -0.50 22.40 0 15.70 -0.15 20.70 -0.60 21.25 -0.50 0.55 -2 0.65 -7.40 0.55z"/>
  <path d="M560.75 242.50 c-1.10 -0.55 -4.90 -2.20 -8.50 -3.70 l-6.50 -2.70 0.15 -49.75 c0.10 -31 0 -49.85 -0.30 -50.05 -0.30 -0.15 -26.45 -0.30 -58.15 -0.30 l-57.70 0 -0.15 25 c-0.05 13.75 -0.20 25 -0.35 25 -0.10 0 -1.20 -0.45 -2.35 -0.95 -1.20 -0.50 -5.20 -2.25 -8.90 -3.90 l-6.75 -2.90 -0.15 -30.65 -0.10 -30.60 76.50 0 76.50 0 0.05 15.90 c0 8.70 0.10 36.75 0.25 62.30 0.10 25.55 0.10 46.85 -0.05 47.35 -0.40 1.15 -0.95 1.15 -3.50 -0.05z"/>
  <path d="M426.25 206.25 c-2.45 -1.10 -11.30 -5.05 -14.10 -6.30 -1.90 -0.80 -2.65 -1.40 -2.65 -2.10 0 -0.65 0.25 -0.85 0.75 -0.65 0.65 0.25 0.75 -0.50 0.75 -4.95 0 -2.90 0.10 -5.25 0.20 -5.25 0.20 0 6.80 2.85 13.80 5.90 l4.25 1.90 0.15 5.20 c0.10 3.95 0.30 5.35 0.85 5.65 2.35 1.30 -1.25 1.85 -4 0.60z"/>
 </g>
 <g fill="#ffffff">
  <path d="M525.70 515 c-2.05 -0.45 -4.40 -1.90 -5.20 -3.20 -0.95 -1.50 -1.50 -4.80 -0.95 -6.15 0.35 -0.95 0.80 -1.15 2.60 -1.15 2.45 0 3.35 0.65 3.35 2.50 0 2.55 2.25 3.75 3.95 2.05 2.10 -2.10 1.15 -3.90 -4.15 -8.30 -5.25 -4.35 -6.15 -6.10 -5.90 -11.60 0.10 -2.05 2.50 -4.80 5 -5.80 2.40 -0.95 6.35 -0.45 8.45 1.05 1.75 1.25 3.15 4.30 3.15 6.85 l0 1.75 -3 0 -3 0 0 -1.65 c0 -1.90 -0.75 -2.85 -2.25 -2.85 -1.50 0 -2.25 0.95 -2.25 2.75 0 1.65 1.30 3.15 6.15 6.95 7.25 5.75 5.85 15.90 -2.40 16.95 -1.10 0.10 -2.70 0.05 -3.55 -0.15z"/>
  <path d="M95.10 499.15 l0.15 -15.90 3.50 -0.15 c7.55 -0.35 11.15 0.90 12.95 4.55 0.95 2.05 1 2.20 0.85 9.15 -0.05 3.80 -0.25 4.80 -1.15 6.20 -1.80 2.65 -3.50 3.60 -6.95 3.95 l-3.10 0.30 -0.05 3.75 -0.05 3.75 -3.15 0.15 -3.10 0.15 0.10 -15.90z m10.80 0.95 c0.35 -0.50 0.60 -2.40 0.60 -5.15 0 -5.10 -0.55 -6.10 -3.40 -5.85 l-1.75 0.15 0.05 5.70 c0.05 3.65 0.25 5.85 0.60 6.05 0.85 0.55 3.15 0 3.90 -0.90z"/>
  <path d="M138.80 514.25 c-0.50 -1.40 -0.25 -29.35 0.30 -30.40 0.45 -0.90 0.95 -0.95 5.85 -0.75 5.60 0.25 7.40 0.80 9.35 3 1.45 1.60 2.20 4.05 2.20 7.25 0 2.85 -0.45 4.20 -2.10 6 l-1 1.10 1.15 1.90 c1 1.65 1.15 2.50 1.20 7.15 l0 5.25 -2.40 0.15 c-3.40 0.20 -3.85 -0.30 -3.85 -4.70 0 -4.45 -0.50 -5.90 -2.45 -6.95 -0.85 -0.40 -1.60 -0.75 -1.75 -0.75 -0.15 0 -0.35 2.75 -0.40 6.15 l-0.15 6.10 -2.80 0.15 c-2.25 0.10 -2.90 0 -3.15 -0.65z m10.70 -18.05 c0.75 -1.90 0.60 -4.85 -0.30 -6.10 -0.55 -0.75 -1.25 -1.10 -2.50 -1.10 l-1.70 0 0 4.25 0 4.25 2 0 c1.70 0 2.10 -0.20 2.50 -1.30z"/>
  <path d="M186.40 513.95 c-1.20 -0.60 -2.30 -1.75 -2.90 -3 -1 -1.90 -1.05 -2.70 -0.90 -12.60 0.15 -10.05 0.20 -10.70 1.25 -12.15 3.25 -4.55 11.50 -4.55 14.85 -0.05 1 1.35 1.05 2 1.05 12.75 0 11.15 0 11.40 -1.15 12.85 -2 2.55 -3.55 3.25 -7.10 3.20 -2.25 0 -3.85 -0.30 -5.10 -1z m6.30 -4.75 c0.65 -0.65 0.80 -2.30 0.80 -10.20 0 -9.15 -0.05 -9.45 -1.10 -10.20 -0.95 -0.65 -1.25 -0.70 -2.15 -0.10 -0.95 0.65 -1 1.25 -1.15 10.05 -0.10 8.20 0 9.50 0.70 10.30 1.05 1.15 1.90 1.20 2.90 0.15z"/>
  <path d="M226.85 514.70 c-0.20 -0.20 -0.35 -7.15 -0.35 -15.45 0 -12.95 0.10 -15.20 0.75 -15.75 1.10 -0.90 10.55 -0.40 12.65 0.70 0.85 0.45 2.10 1.55 2.80 2.45 1.25 1.65 1.30 1.95 1.30 8.50 l0 6.80 -1.55 1.80 c-2.05 2.35 -3.10 2.85 -6.45 3.20 l-2.75 0.30 -0.25 3.75 -0.25 3.75 -2.75 0.15 c-1.55 0.10 -2.95 0 -3.15 -0.20z m10.50 -14.30 c0.90 -0.75 0.90 -9.40 0 -10.60 -0.45 -0.60 -1.15 -0.85 -2.35 -0.70 l-1.75 0.15 -0.15 5.70 c-0.10 4.25 0.05 5.85 0.50 6.15 0.75 0.45 2.85 0.10 3.75 -0.70z"/>
  <path d="M270.30 514.20 c-0.15 -0.45 -0.30 -7.40 -0.30 -15.50 l0 -14.70 1.35 -0.55 c0.75 -0.25 2.15 -0.45 3.10 -0.35 l1.80 0.15 0.15 15.90 0.10 15.85 -2.95 0 c-2.20 0 -3 -0.20 -3.25 -0.80z"/>
  <path d="M303.90 514.40 c-0.15 -0.35 -0.10 -7.50 0.05 -15.90 l0.30 -15.25 7.10 -0.15 c6.80 -0.10 7.15 -0.10 7.65 0.90 0.35 0.65 0.45 1.90 0.25 3.05 l-0.35 1.95 -4.20 0 -4.20 0 0 3.50 0 3.45 3.40 0.15 3.35 0.15 0.15 2.65 0.15 2.60 -3.55 0 -3.55 0 0.15 3.90 0.15 3.85 4.40 0.15 4.40 0.15 -0.15 2.60 -0.15 2.60 -7.55 0.15 c-5.80 0.10 -7.65 -0.05 -7.80 -0.50z"/>
  <path d="M345.50 499.25 l0 -15.75 1.30 -0.30 c2.15 -0.55 10.45 0.15 12.10 1 0.80 0.40 2.10 1.50 2.80 2.35 l1.35 1.60 -0.15 11.20 -0.15 11.25 -1.85 1.65 c-2.35 2.15 -4.55 2.75 -10.50 2.75 l-4.90 0 0 -15.75z m9.30 9.95 c0.60 -0.15 1.35 -0.85 1.65 -1.50 0.70 -1.55 0.75 -15.65 0.05 -17.45 -0.45 -1.15 -0.70 -1.30 -2.60 -1.15 l-2.15 0.15 -0.15 9.70 c-0.15 10.90 -0.10 11.15 3.20 10.25z"/>
  <path d="M389.85 514.70 c-0.55 -0.55 -0.40 -24.20 0.15 -26.15 1.90 -6.65 11.95 -7.85 15.90 -1.90 l1.35 2.05 0.20 11.90 c0.10 6.55 0 12.45 -0.15 13.15 -0.30 1.10 -0.60 1.25 -2.75 1.25 -3.90 0 -4.05 -0.15 -4.05 -4.05 l0 -3.45 -2.25 0 -2.20 0 -0.15 3.65 -0.15 3.60 -2.75 0.15 c-1.55 0.10 -2.95 0 -3.15 -0.20z m10.65 -18.60 c0 -6.70 -0.25 -7.60 -2.25 -7.60 -1.95 0 -2.25 0.90 -2.25 7.25 0 3.35 0.15 6.25 0.35 6.40 0.15 0.20 1.20 0.35 2.25 0.35 l1.90 0 0 -6.40z"/>
  <path d="M434.35 514.65 c-0.20 -0.15 -0.35 -7.10 -0.35 -15.40 0 -12.90 0.10 -15.20 0.75 -15.75 0.55 -0.45 2.20 -0.55 5.90 -0.40 5.45 0.25 7.20 0.85 9.35 3.15 l1.25 1.35 0 11.40 0 11.45 -1.70 1.75 c-1 1.05 -2.50 1.90 -3.85 2.25 -2.35 0.60 -10.85 0.75 -11.35 0.20z m10.05 -6.25 c0.45 -0.40 0.60 -2.95 0.60 -9.65 0 -10 0.10 -9.75 -3.05 -9.75 l-1.45 0 0 9.95 c0 7.50 0.15 10.05 0.65 10.20 0.75 0.30 2.35 -0.10 3.25 -0.75z"/>
  <path d="M478.40 499.90 c-0.10 -8.35 0.05 -15.55 0.25 -16 0.35 -0.80 1.20 -0.90 7.30 -0.90 7.90 0 8.20 0.15 7.95 3.60 l-0.15 2.15 -4.60 0.15 -4.65 0.15 0 3.45 0 3.45 3.90 0.15 3.85 0.15 0 2.50 0 2.50 -3.90 0.15 -3.90 0.15 0.15 3.85 0.15 3.85 4.65 0.15 4.65 0.15 -0.15 2.60 -0.15 2.60 -7.60 0.15 -7.60 0.15 -0.15 -15.15z"/>
  <path d="M500.30 354.65 c-3.25 -3 -8.75 -6.75 -12.30 -8.30 -1.25 -0.55 -2.30 -1.05 -2.40 -1.10 -0.05 -0.05 -0.10 -21.15 -0.10 -46.85 0 -43.80 -0.05 -46.80 -0.90 -47.50 -0.45 -0.40 -2.85 -1.60 -5.35 -2.60 -6.30 -2.60 -9.95 -4.20 -14 -6.05 -1.95 -0.90 -4.10 -1.75 -4.75 -1.95 -0.70 -0.20 -4.15 -1.70 -7.75 -3.30 -3.55 -1.60 -8.75 -3.85 -11.50 -5 -2.75 -1.20 -8.60 -3.70 -13 -5.60 -4.40 -1.95 -10.60 -4.60 -13.75 -5.90 -3.15 -1.30 -7.75 -3.30 -10.15 -4.40 l-4.45 -2.10 -5.95 2.75 c-3.30 1.50 -6.20 2.75 -6.45 2.75 -0.20 0 -2.95 1.15 -6.10 2.55 -8.35 3.75 -8.55 3.85 -9.85 4.25 -0.70 0.15 -4.60 1.90 -8.65 3.75 -4.10 1.90 -7.60 3.45 -7.85 3.45 -0.45 0 -3.30 1.20 -8.05 3.40 -3.75 1.70 -16.50 7.20 -23.50 10.05 -3.15 1.30 -6.50 2.75 -7.35 3.25 l-1.65 0.85 0 29.15 c0 18.80 -0.20 29.30 -0.50 29.40 -0.25 0.10 -4.55 0.10 -9.50 0 l-9 -0.15 0 -35.95 0 -36 2.40 -1.05 c4.40 -2 5.35 -2.40 10.50 -4.50 l5.10 -2.05 0 -13.20 0 -13.20 9.25 0 9.25 0 0 8.70 c0 4.80 0.15 8.85 0.40 8.95 0.40 0.25 7.60 -2.65 22.35 -9.15 5.80 -2.55 13.30 -5.80 16.75 -7.25 3.45 -1.45 8.40 -3.55 11 -4.75 2.60 -1.15 5.55 -2.40 6.50 -2.75 0.95 -0.35 3.75 -1.55 6.15 -2.70 2.45 -1.10 4.50 -2.05 4.60 -2.05 0.10 0 1.95 0.80 4.10 1.80 2.15 1 5 2.25 6.40 2.80 2.80 1.10 4.15 1.70 10.25 4.45 2.35 1.05 6.40 2.80 9 3.90 2.60 1.05 8.15 3.40 12.25 5.20 4.15 1.75 13.90 5.95 21.75 9.30 7.85 3.35 15.70 6.80 17.50 7.65 1.80 0.85 6.40 2.80 10.25 4.40 3.85 1.60 8.30 3.50 9.90 4.25 l2.85 1.30 0 60 c0 32.95 -0.15 59.95 -0.35 59.95 -0.25 -0.05 -1.75 -1.30 -3.35 -2.85z"/>
  <path d="M59.25 302.35 c-0.20 -0.65 -0.25 -2.30 -0.15 -3.65 l0.15 -2.45 36 0 36 0 0 3.50 0 3.50 -35.85 0.15 -35.90 0.10 -0.25 -1.15z"/>
 </g>
</svg>